# xmcd
#
# Track frame offsets:
#        150
#        21252
#        33472
#        42340
#        67810
#        79517
#        92522
#        111377
#        128617
#        143600
#        164100
#
# Disc length: 2426 seconds
#
# Revision: 0
# Processed by: cddbd v1.5.1PL0 Copyright (c) Steve Scherf et al.
# Submitted via: ExactAudioCopy v0.95b2
#
DISCID=8a09780b
DTITLE=Ivan Lins - Chama Acesa
DYEAR=2001
DGENRE=Latin
TTITLE0=Sorriso Da Magoa
TTITLE1=Nesse Botequim
TTITLE2=Chama Acesa
TTITLE3=Lenda Do Carmo
TTITLE4=Joana Dos Barcos
TTITLE5=Ventos De Junho
TTITLE6=Nao Ha Porque
TTITLE7=Demonio De Guarda
TTITLE8=Poeira, Cinza E Fumaca
TTITLE9=Palhacos E Reis
TTITLE10=Corpos
EXTD=
EXTT0=
EXTT1=
EXTT2=
EXTT3=
EXTT4=
EXTT5=
EXTT6=
EXTT7=
EXTT8=
EXTT9=
EXTT10=
PLAYORDER=
